<?xml version="1.0" encoding="UTF-8"?>
<!DOCTYPE svg PUBLIC "-//W3C//DTD SVG 1.1//EN" "http://www.w3.org/Graphics/SVG/1.1/DTD/svg11.dtd">
<svg version="1.2" viewBox="-1 0 7687 1850" preserveAspectRatio="xMidYMid" fill-rule="evenodd" stroke-width="28.222" stroke-linejoin="round" xmlns="http://www.w3.org/2000/svg" xmlns:ooo="http://xml.openoffice.org/svg/export" xmlns:xlink="http://www.w3.org/1999/xlink" xmlns:presentation="http://sun.com/xmlns/staroffice/presentation" xmlns:smil="http://www.w3.org/2001/SMIL20/" xmlns:anim="urn:oasis:names:tc:opendocument:xmlns:animation:1.0" xmlns:svg="urn:oasis:names:tc:opendocument:xmlns:svg-compatible:1.0" xml:space="preserve">
 <defs class="EmbeddedBulletChars">
  <g id="bullet-char-template-57356" transform="scale(0.00048828125,-0.00048828125)">
   <path d="M 580,1141 L 1163,571 580,0 -4,571 580,1141 Z"/>
  </g>
  <g id="bullet-char-template-57354" transform="scale(0.00048828125,-0.00048828125)">
   <path d="M 8,1128 L 1137,1128 1137,0 8,0 8,1128 Z"/>
  </g>
  <g id="bullet-char-template-10146" transform="scale(0.00048828125,-0.00048828125)">
   <path d="M 174,0 L 602,739 174,1481 1456,739 174,0 Z M 1358,739 L 309,1346 659,739 1358,739 Z"/>
  </g>
  <g id="bullet-char-template-10132" transform="scale(0.00048828125,-0.00048828125)">
   <path d="M 2015,739 L 1276,0 717,0 1260,543 174,543 174,936 1260,936 717,1481 1274,1481 2015,739 Z"/>
  </g>
  <g id="bullet-char-template-10007" transform="scale(0.00048828125,-0.00048828125)">
   <path d="M 0,-2 C -7,14 -16,27 -25,37 L 356,567 C 262,823 215,952 215,954 215,979 228,992 255,992 264,992 276,990 289,987 310,991 331,999 354,1012 L 381,999 492,748 772,1049 836,1024 860,1049 C 881,1039 901,1025 922,1006 886,937 835,863 770,784 769,783 710,716 594,584 L 774,223 C 774,196 753,168 711,139 L 727,119 C 717,90 699,76 672,76 641,76 570,178 457,381 L 164,-76 C 142,-110 111,-127 72,-127 30,-127 9,-110 8,-76 1,-67 -2,-52 -2,-32 -2,-23 -1,-13 0,-2 Z"/>
  </g>
  <g id="bullet-char-template-10004" transform="scale(0.00048828125,-0.00048828125)">
   <path d="M 285,-33 C 182,-33 111,30 74,156 52,228 41,333 41,471 41,549 55,616 82,672 116,743 169,778 240,778 293,778 328,747 346,684 L 369,508 C 377,444 397,411 428,410 L 1163,1116 C 1174,1127 1196,1133 1229,1133 1271,1133 1292,1118 1292,1087 L 1292,965 C 1292,929 1282,901 1262,881 L 442,47 C 390,-6 338,-33 285,-33 Z"/>
  </g>
  <g id="bullet-char-template-9679" transform="scale(0.00048828125,-0.00048828125)">
   <path d="M 813,0 C 632,0 489,54 383,161 276,268 223,411 223,592 223,773 276,916 383,1023 489,1130 632,1184 813,1184 992,1184 1136,1130 1245,1023 1353,916 1407,772 1407,592 1407,412 1353,268 1245,161 1136,54 992,0 813,0 Z"/>
  </g>
  <g id="bullet-char-template-8226" transform="scale(0.00048828125,-0.00048828125)">
   <path d="M 346,457 C 273,457 209,483 155,535 101,586 74,649 74,723 74,796 101,859 155,911 209,963 273,989 346,989 419,989 480,963 531,910 582,859 608,796 608,723 608,648 583,586 532,535 482,483 420,457 346,457 Z"/>
  </g>
  <g id="bullet-char-template-8211" transform="scale(0.00048828125,-0.00048828125)">
   <path d="M -4,459 L 1135,459 1135,606 -4,606 -4,459 Z"/>
  </g>
  <g id="bullet-char-template-61548" transform="scale(0.00048828125,-0.00048828125)">
   <path d="M 173,740 C 173,903 231,1043 346,1159 462,1274 601,1332 765,1332 928,1332 1067,1274 1183,1159 1299,1043 1357,903 1357,740 1357,577 1299,437 1183,322 1067,206 928,148 765,148 601,148 462,206 346,322 231,437 173,577 173,740 Z"/>
  </g>
 </defs>
 <g ooo:name="page5" class="Page">
  <g class="Group">
   <g class="com.sun.star.drawing.ClosedBezierShape">
    <g id="id3">
     <rect class="BoundingBox" stroke="none" fill="none" x="-1" y="0" width="7687" height="1850"/>
     <path fill="rgb(28,28,28)" stroke="none" d="M 308,0 C 254,0 201,14 154,41 107,68 68,107 41,154 14,201 0,254 0,308 0,718 0,1129 0,1540 L 0,1540 C 0,1594 14,1647 41,1694 68,1741 107,1780 154,1807 201,1834 254,1848 308,1848 2664,1848 5020,1848 7376,1848 L 7377,1848 C 7430,1848 7484,1834 7530,1807 7577,1780 7616,1741 7643,1694 7670,1647 7684,1594 7684,1540 7684,1129 7684,718 7684,308 7684,254 7670,201 7643,154 7616,107 7577,68 7530,41 7484,14 7430,0 7377,0 5020,0 2664,0 308,0 Z "/>
    </g>
   </g>
   <g class="Group">
    <g class="com.sun.star.drawing.ClosedBezierShape">
     <g id="id4">
      <rect class="BoundingBox" stroke="none" fill="none" x="463" y="461" width="535" height="866"/>
      <path fill="rgb(221,221,221)" stroke="none" d="M 464,480 C 495,473 528,468 564,465 600,463 635,462 670,462 707,462 745,465 784,473 823,480 858,493 889,513 922,532 947,559 967,593 987,627 997,671 997,724 997,776 988,820 969,855 950,891 925,920 895,943 863,965 828,981 789,991 749,1001 707,1006 665,1006 L 645,1006 C 636,1006 626,1005 616,1005 606,1005 596,1004 586,1003 576,1002 569,1001 565,1001 L 565,1325 464,1325 464,480 Z M 672,549 C 651,549 631,550 611,550 592,551 577,553 565,557 L 565,911 C 569,912 576,913 584,913 594,914 603,914 613,915 622,915 632,915 641,915 L 660,915 C 688,915 716,912 742,907 770,902 794,892 816,879 839,865 856,845 870,820 883,795 889,763 889,724 889,691 883,663 871,640 858,618 841,600 821,586 800,573 777,564 751,558 725,552 699,549 672,549 Z "/>
     </g>
    </g>
    <g class="com.sun.star.drawing.ClosedBezierShape">
     <g id="id5">
      <rect class="BoundingBox" stroke="none" fill="none" x="1056" y="715" width="545" height="862"/>
      <path fill="rgb(221,221,221)" stroke="none" d="M 1315,1110 L 1350,1228 1355,1228 1382,1109 1501,715 1599,715 1419,1263 C 1405,1302 1391,1341 1378,1379 1364,1416 1350,1449 1334,1479 1317,1508 1299,1532 1278,1549 1258,1566 1235,1575 1208,1575 1179,1575 1155,1571 1136,1563 L 1153,1479 C 1164,1483 1174,1485 1183,1485 1206,1485 1228,1473 1249,1449 1270,1425 1288,1384 1302,1325 L 1057,715 1169,715 1315,1110 Z "/>
     </g>
    </g>
    <g class="com.sun.star.drawing.ClosedBezierShape">
     <g id="id6">
      <rect class="BoundingBox" stroke="none" fill="none" x="1714" y="461" width="535" height="866"/>
      <path fill="rgb(221,221,221)" stroke="none" d="M 1714,480 C 1745,473 1778,468 1814,465 1850,463 1885,462 1920,462 1957,462 1995,465 2034,473 2073,480 2108,493 2140,513 2172,532 2197,559 2217,593 2237,627 2247,671 2247,724 2247,776 2238,820 2219,855 2201,891 2176,920 2145,943 2114,965 2079,981 2039,991 1999,1001 1957,1006 1915,1006 L 1895,1006 C 1886,1006 1876,1005 1866,1005 1856,1005 1846,1004 1836,1003 1826,1002 1819,1001 1815,1001 L 1815,1325 1714,1325 1714,480 Z M 1922,549 C 1901,549 1881,550 1861,550 1842,551 1827,553 1815,557 L 1815,911 C 1819,912 1826,913 1835,913 1844,914 1853,914 1863,915 1872,915 1882,915 1891,915 L 1910,915 C 1938,915 1966,912 1993,907 2020,902 2044,892 2067,879 2089,865 2106,845 2120,820 2133,795 2140,763 2140,724 2140,691 2133,663 2121,640 2108,618 2091,600 2071,586 2050,573 2027,564 2001,558 1975,552 1949,549 1922,549 Z "/>
     </g>
    </g>
    <g class="com.sun.star.drawing.ClosedBezierShape">
     <g id="id7">
      <rect class="BoundingBox" stroke="none" fill="none" x="3000" y="471" width="242" height="870"/>
      <path fill="rgb(221,221,221)" stroke="none" d="M 3098,1175 C 3098,1204 3102,1224 3112,1236 3122,1248 3136,1254 3154,1254 3164,1254 3176,1253 3188,1252 3200,1250 3214,1247 3230,1241 L 3240,1318 C 3227,1324 3210,1329 3186,1334 3163,1337 3143,1339 3126,1339 3089,1339 3059,1329 3036,1309 3012,1288 3000,1252 3000,1203 L 3000,471 3098,471 3098,1175 Z "/>
     </g>
    </g>
    <g class="com.sun.star.drawing.ClosedBezierShape">
     <g id="id8">
      <rect class="BoundingBox" stroke="none" fill="none" x="3307" y="456" width="536" height="885"/>
      <path fill="rgb(221,221,221)" stroke="none" d="M 3741,1108 C 3741,1074 3731,1046 3710,1024 3690,1003 3664,984 3634,967 3603,950 3570,935 3534,920 3499,906 3465,888 3435,867 3404,847 3379,821 3359,790 3338,760 3328,721 3328,674 3328,607 3351,554 3398,515 3444,476 3510,457 3595,457 3645,457 3690,461 3731,468 3771,475 3803,485 3826,496 L 3795,585 C 3777,576 3749,567 3713,559 3677,551 3636,547 3590,547 3537,547 3497,559 3470,583 3443,607 3429,635 3429,668 3429,699 3440,726 3460,747 3480,768 3506,787 3536,804 3567,820 3600,837 3635,853 3672,869 3705,888 3735,910 3766,931 3791,957 3811,987 3831,1018 3842,1055 3842,1100 3842,1136 3835,1169 3822,1198 3809,1228 3790,1253 3765,1274 3740,1295 3709,1312 3673,1323 3637,1334 3597,1340 3551,1340 3490,1340 3440,1335 3400,1326 3360,1316 3330,1306 3307,1295 L 3342,1203 C 3360,1214 3388,1224 3425,1234 3461,1244 3502,1250 3548,1250 3574,1250 3600,1247 3623,1241 3647,1236 3667,1228 3684,1216 3701,1204 3715,1190 3725,1171 3735,1154 3741,1132 3741,1108 Z "/>
     </g>
    </g>
    <g class="com.sun.star.drawing.ClosedBezierShape">
     <g id="id9">
      <rect class="BoundingBox" stroke="none" fill="none" x="3908" y="457" width="696" height="870"/>
      <path fill="rgb(221,221,221)" stroke="none" d="M 4409,1088 L 4094,1088 C 4066,1167 4037,1246 4009,1325 L 3909,1325 C 4016,1036 4124,747 4232,458 L 4279,458 4603,1325 4497,1325 4409,1088 Z M 4127,1000 L 4378,1000 C 4347,914 4315,827 4283,741 4273,698 4263,655 4253,611 L 4252,611 C 4242,655 4231,699 4221,743 L 4127,1000 Z "/>
     </g>
    </g>
    <g class="com.sun.star.drawing.ClosedBezierShape">
     <g id="id10">
      <rect class="BoundingBox" stroke="none" fill="none" x="4716" y="461" width="576" height="866"/>
      <path fill="rgb(221,221,221)" stroke="none" d="M 4716,480 C 4747,474 4782,470 4823,466 4863,463 4900,462 4933,462 4971,462 5006,465 5040,474 5074,482 5103,495 5129,514 5155,533 5175,557 5191,587 5206,617 5214,654 5214,697 5214,764 5195,818 5159,859 5122,900 5076,928 5020,942 L 5078,987 5290,1325 5172,1325 4937,957 4817,938 4817,1325 4716,1325 4716,480 Z M 4936,549 L 4903,549 C 4891,549 4880,550 4870,550 4859,551 4849,552 4840,553 4830,554 4823,555 4817,557 L 4817,871 4912,871 C 4969,871 5015,858 5052,830 5088,802 5106,759 5106,701 5106,657 5091,620 5061,592 5031,564 4989,549 4936,549 Z "/>
     </g>
    </g>
    <g class="com.sun.star.drawing.ClosedBezierShape">
     <g id="id11">
      <rect class="BoundingBox" stroke="none" fill="none" x="5420" y="700" width="508" height="870"/>
      <path fill="rgb(221,221,221)" stroke="none" d="M 5420,715 L 5487,715 5506,789 5510,789 C 5529,760 5553,738 5583,723 5613,708 5647,701 5685,701 5766,701 5827,725 5867,773 5907,821 5926,899 5926,1008 5926,1059 5920,1106 5906,1146 5893,1188 5874,1222 5849,1251 5825,1279 5796,1301 5761,1317 5726,1332 5688,1340 5646,1340 5616,1340 5592,1338 5574,1335 5557,1331 5538,1325 5518,1315 L 5518,1569 5420,1569 5420,715 Z M 5666,786 C 5625,786 5593,797 5568,818 5544,840 5528,873 5518,917 L 5518,1219 C 5532,1230 5549,1239 5568,1245 5586,1252 5611,1254 5642,1254 5698,1254 5743,1234 5775,1191 5809,1150 5825,1088 5825,1007 5825,973 5822,943 5817,916 5811,889 5802,865 5789,847 5776,827 5760,813 5740,802 5720,791 5696,786 5666,786 Z "/>
     </g>
    </g>
    <g class="com.sun.star.drawing.ClosedBezierShape">
     <g id="id12">
      <rect class="BoundingBox" stroke="none" fill="none" x="6079" y="703" width="311" height="624"/>
      <path fill="rgb(221,221,221)" stroke="none" d="M 6368,809 C 6344,801 6320,797 6298,797 6263,797 6236,806 6215,826 6195,845 6182,869 6177,898 L 6177,1325 6080,1325 6080,715 6148,715 6166,790 6172,790 C 6187,762 6205,741 6227,726 6249,711 6276,703 6310,703 6333,703 6359,707 6389,715 L 6368,809 Z "/>
     </g>
    </g>
    <g class="com.sun.star.drawing.ClosedBezierShape">
     <g id="id13">
      <rect class="BoundingBox" stroke="none" fill="none" x="6460" y="700" width="537" height="641"/>
      <path fill="rgb(221,221,221)" stroke="none" d="M 6461,1020 C 6461,917 6484,838 6530,783 6576,728 6642,701 6728,701 6773,701 6813,708 6847,723 6881,738 6908,760 6930,788 6953,816 6968,850 6979,889 6990,929 6995,973 6995,1020 6995,1124 6972,1203 6926,1258 6880,1313 6814,1340 6728,1340 6682,1340 6643,1332 6609,1317 6575,1302 6547,1281 6526,1252 6504,1225 6487,1191 6477,1152 6466,1112 6461,1068 6461,1020 Z M 6562,1020 C 6562,1051 6565,1081 6571,1109 6577,1138 6587,1163 6600,1184 6613,1205 6630,1222 6651,1235 6672,1248 6698,1254 6728,1254 6839,1255 6894,1177 6894,1020 6894,988 6891,959 6885,930 6879,901 6869,877 6856,856 6843,835 6826,817 6805,805 6784,792 6758,786 6728,786 6617,785 6562,863 6562,1020 Z "/>
     </g>
    </g>
   </g>
   <g class="com.sun.star.drawing.ClosedBezierShape">
    <g id="id14">
     <rect class="BoundingBox" stroke="none" fill="none" x="2209" y="420" width="701" height="997"/>
     <path fill="rgb(89,131,176)" stroke="none" d="M 2683,1257 C 2683,1257 2683,1257 2683,1257 2656,1289 2628,1315 2599,1338 2570,1361 2540,1379 2511,1392 2494,1400 2477,1405 2460,1409 2443,1413 2426,1415 2409,1415 2396,1415 2383,1414 2370,1411 2357,1408 2345,1404 2333,1399 2332,1399 2332,1399 2332,1398 2319,1392 2306,1384 2295,1374 2284,1365 2273,1354 2264,1341 2247,1319 2233,1290 2224,1257 2224,1257 2224,1257 2224,1257 2214,1223 2210,1184 2210,1142 2210,1109 2212,1075 2218,1038 2218,1038 2218,1038 2218,1038 2231,959 2258,874 2295,794 2295,794 2295,793 2296,793 2334,713 2382,638 2435,578 L 2435,578 C 2435,578 2435,578 2435,578 2435,578 2435,578 2435,578 L 2435,578 C 2463,547 2491,520 2519,498 2548,475 2578,456 2607,443 2607,443 2607,443 2607,443 2625,436 2642,430 2658,426 2675,422 2692,420 2708,420 2722,420 2735,422 2748,424 2761,427 2774,432 2786,437 2799,444 2812,452 2823,461 2835,471 2845,482 2854,494 2871,517 2885,546 2894,579 2904,613 2909,653 2909,696 2909,728 2906,762 2900,797 2900,797 2900,797 2900,798 2887,877 2861,961 2823,1042 2785,1123 2736,1197 2683,1257 Z M 2360,1296 C 2365,1300 2370,1304 2376,1306 2381,1309 2386,1310 2391,1312 2397,1313 2403,1313 2409,1313 2418,1313 2428,1312 2437,1310 2448,1307 2459,1304 2470,1299 2492,1289 2514,1275 2537,1257 2560,1239 2584,1216 2607,1190 2654,1136 2697,1070 2731,998 2765,927 2788,852 2800,781 2805,751 2807,722 2807,696 2807,663 2804,633 2796,606 2791,586 2783,569 2773,555 2768,549 2763,544 2758,539 2753,535 2748,532 2743,529 2743,529 2742,529 2742,529 2737,527 2732,525 2727,524 2721,523 2715,522 2708,522 2700,522 2691,523 2681,525 2670,528 2660,532 2648,537 2626,546 2604,560 2582,578 2558,597 2535,619 2512,645 2512,645 2512,645 2512,645 2464,699 2422,765 2388,837 2354,909 2330,984 2319,1054 2314,1085 2311,1114 2311,1142 2311,1174 2315,1204 2322,1229 2328,1250 2336,1267 2346,1281 2350,1287 2355,1292 2360,1296 Z M 2786,437 L 2764,483 2786,437 C 2786,437 2786,437 2786,437 2786,437 2786,437 2786,437 Z "/>
    </g>
   </g>
   <g class="Group">
    <g class="com.sun.star.drawing.ClosedBezierShape">
     <g id="id15">
      <rect class="BoundingBox" stroke="none" fill="none" x="7057" y="167" width="457" height="457"/>
      <path fill="rgb(221,221,221)" stroke="none" d="M 7495,264 C 7489,257 7483,252 7477,245 7489,245 7501,245 7513,245 7487,219 7461,194 7435,168 7435,180 7435,192 7435,204 7428,197 7422,192 7416,185 7415,183 7413,182 7410,181 7405,178 7400,177 7395,177 7390,177 7384,178 7380,181 7377,182 7375,183 7373,185 7327,231 7282,277 7236,323 7234,324 7233,327 7231,329 7228,333 7227,339 7227,344 7227,350 7228,355 7231,360 7233,362 7234,364 7236,366 7242,372 7248,378 7255,385 7250,388 7246,391 7242,395 7241,396 7239,398 7238,399 7236,398 7234,397 7232,395 7210,383 7185,376 7160,376 7134,376 7109,383 7087,395 7076,401 7066,409 7057,418 7085,446 7113,474 7141,502 7141,503 7140,503 7140,504 7119,524 7111,549 7121,559 7131,570 7156,561 7176,540 7177,540 7177,539 7178,539 7206,567 7234,595 7262,623 7271,614 7279,604 7285,593 7297,571 7304,546 7304,521 7304,495 7297,470 7285,448 7283,446 7283,444 7281,442 7283,440 7284,439 7285,438 7289,434 7292,430 7295,426 7302,432 7308,438 7314,444 7316,446 7318,448 7320,449 7325,452 7331,453 7336,453 7341,453 7347,452 7351,449 7354,448 7356,446 7357,444 7403,398 7449,353 7495,307 7497,305 7499,303 7500,301 7502,296 7504,291 7504,285 7504,280 7502,275 7500,270 7499,267 7497,266 7495,264 Z "/>
     </g>
    </g>
    <g class="com.sun.star.drawing.ClosedBezierShape">
     <g id="id16">
      <rect class="BoundingBox" stroke="none" fill="none" x="7085" y="86" width="221" height="222"/>
      <path fill="rgb(221,221,221)" stroke="none" d="M 7085,171 C 7113,143 7141,115 7169,86 7214,132 7259,177 7305,222 7276,250 7248,278 7221,306 7175,261 7130,216 7085,171 Z "/>
     </g>
    </g>
    <g class="com.sun.star.drawing.ClosedBezierShape">
     <g id="id17">
      <rect class="BoundingBox" stroke="none" fill="none" x="7373" y="375" width="222" height="222"/>
      <path fill="rgb(221,221,221)" stroke="none" d="M 7373,460 C 7401,432 7429,403 7457,376 7502,421 7548,466 7593,511 7565,539 7537,567 7509,595 7464,550 7418,505 7373,460 Z "/>
     </g>
    </g>
    <g class="com.sun.star.drawing.ClosedBezierShape">
     <g id="id18">
      <rect class="BoundingBox" stroke="none" fill="none" x="6952" y="516" width="212" height="213"/>
      <path fill="rgb(221,221,221)" stroke="none" d="M 7163,707 C 7129,707 7097,698 7068,682 7039,665 7015,641 6998,612 6981,583 6972,550 6972,517 6966,517 6959,517 6953,517 6953,554 6962,590 6980,622 6999,654 7026,681 7058,699 7090,717 7126,727 7163,727 7163,720 7163,714 7163,707 Z "/>
     </g>
    </g>
    <g class="com.sun.star.drawing.ClosedBezierShape">
     <g id="id19">
      <rect class="BoundingBox" stroke="none" fill="none" x="6989" y="516" width="175" height="176"/>
      <path fill="rgb(221,221,221)" stroke="none" d="M 7010,517 C 7003,517 6996,517 6990,517 6990,547 6997,577 7013,603 7027,629 7050,651 7076,667 7102,681 7132,690 7163,690 7163,683 7163,677 7163,670 7136,670 7110,663 7086,649 7063,636 7044,617 7030,594 7017,570 7010,544 7010,517 Z "/>
     </g>
    </g>
    <g class="com.sun.star.drawing.ClosedBezierShape">
     <g id="id20">
      <rect class="BoundingBox" stroke="none" fill="none" x="7030" y="516" width="134" height="134"/>
      <path fill="rgb(221,221,221)" stroke="none" d="M 7083,596 C 7076,589 7070,582 7065,573 7056,556 7051,536 7051,517 L 7051,516 C 7044,516 7037,516 7030,516 7030,539 7037,562 7048,583 7060,603 7076,619 7097,631 7117,643 7140,648 7163,649 7163,642 7163,635 7163,629 7162,629 7162,629 7162,629 7143,629 7123,623 7106,614 7098,609 7090,603 7083,596 Z "/>
     </g>
    </g>
    <g class="com.sun.star.drawing.ClosedBezierShape">
     <g id="id21">
      <rect class="BoundingBox" stroke="none" fill="none" x="7067" y="516" width="97" height="98"/>
      <path fill="rgb(221,221,221)" stroke="none" d="M 7088,517 C 7081,517 7074,517 7067,517 7068,534 7072,550 7080,564 7089,579 7101,591 7115,599 7130,608 7146,612 7163,612 7163,606 7163,599 7163,592 7149,592 7137,588 7125,582 7114,575 7104,566 7098,554 7091,543 7088,530 7088,517 Z "/>
     </g>
    </g>
   </g>
  </g>
 </g>
</svg>