<?xml version="1.0" encoding="UTF-8"?>
<!DOCTYPE svg PUBLIC "-//W3C//DTD SVG 1.1//EN" "http://www.w3.org/Graphics/SVG/1.1/DTD/svg11.dtd">
<svg version="1.2" viewBox="0 0 1002 1002" preserveAspectRatio="xMidYMid" fill-rule="evenodd" stroke-width="28.222" stroke-linejoin="round" xmlns="http://www.w3.org/2000/svg" xmlns:ooo="http://xml.openoffice.org/svg/export" xmlns:xlink="http://www.w3.org/1999/xlink" xmlns:presentation="http://sun.com/xmlns/staroffice/presentation" xmlns:smil="http://www.w3.org/2001/SMIL20/" xmlns:anim="urn:oasis:names:tc:opendocument:xmlns:animation:1.0" xmlns:svg="urn:oasis:names:tc:opendocument:xmlns:svg-compatible:1.0" xml:space="preserve">
 <defs class="EmbeddedBulletChars">
  <g id="bullet-char-template-57356" transform="scale(0.00048828125,-0.00048828125)">
   <path d="M 580,1141 L 1163,571 580,0 -4,571 580,1141 Z"/>
  </g>
  <g id="bullet-char-template-57354" transform="scale(0.00048828125,-0.00048828125)">
   <path d="M 8,1128 L 1137,1128 1137,0 8,0 8,1128 Z"/>
  </g>
  <g id="bullet-char-template-10146" transform="scale(0.00048828125,-0.00048828125)">
   <path d="M 174,0 L 602,739 174,1481 1456,739 174,0 Z M 1358,739 L 309,1346 659,739 1358,739 Z"/>
  </g>
  <g id="bullet-char-template-10132" transform="scale(0.00048828125,-0.00048828125)">
   <path d="M 2015,739 L 1276,0 717,0 1260,543 174,543 174,936 1260,936 717,1481 1274,1481 2015,739 Z"/>
  </g>
  <g id="bullet-char-template-10007" transform="scale(0.00048828125,-0.00048828125)">
   <path d="M 0,-2 C -7,14 -16,27 -25,37 L 356,567 C 262,823 215,952 215,954 215,979 228,992 255,992 264,992 276,990 289,987 310,991 331,999 354,1012 L 381,999 492,748 772,1049 836,1024 860,1049 C 881,1039 901,1025 922,1006 886,937 835,863 770,784 769,783 710,716 594,584 L 774,223 C 774,196 753,168 711,139 L 727,119 C 717,90 699,76 672,76 641,76 570,178 457,381 L 164,-76 C 142,-110 111,-127 72,-127 30,-127 9,-110 8,-76 1,-67 -2,-52 -2,-32 -2,-23 -1,-13 0,-2 Z"/>
  </g>
  <g id="bullet-char-template-10004" transform="scale(0.00048828125,-0.00048828125)">
   <path d="M 285,-33 C 182,-33 111,30 74,156 52,228 41,333 41,471 41,549 55,616 82,672 116,743 169,778 240,778 293,778 328,747 346,684 L 369,508 C 377,444 397,411 428,410 L 1163,1116 C 1174,1127 1196,1133 1229,1133 1271,1133 1292,1118 1292,1087 L 1292,965 C 1292,929 1282,901 1262,881 L 442,47 C 390,-6 338,-33 285,-33 Z"/>
  </g>
  <g id="bullet-char-template-9679" transform="scale(0.00048828125,-0.00048828125)">
   <path d="M 813,0 C 632,0 489,54 383,161 276,268 223,411 223,592 223,773 276,916 383,1023 489,1130 632,1184 813,1184 992,1184 1136,1130 1245,1023 1353,916 1407,772 1407,592 1407,412 1353,268 1245,161 1136,54 992,0 813,0 Z"/>
  </g>
  <g id="bullet-char-template-8226" transform="scale(0.00048828125,-0.00048828125)">
   <path d="M 346,457 C 273,457 209,483 155,535 101,586 74,649 74,723 74,796 101,859 155,911 209,963 273,989 346,989 419,989 480,963 531,910 582,859 608,796 608,723 608,648 583,586 532,535 482,483 420,457 346,457 Z"/>
  </g>
  <g id="bullet-char-template-8211" transform="scale(0.00048828125,-0.00048828125)">
   <path d="M -4,459 L 1135,459 1135,606 -4,606 -4,459 Z"/>
  </g>
  <g id="bullet-char-template-61548" transform="scale(0.00048828125,-0.00048828125)">
   <path d="M 173,740 C 173,903 231,1043 346,1159 462,1274 601,1332 765,1332 928,1332 1067,1274 1183,1159 1299,1043 1357,903 1357,740 1357,577 1299,437 1183,322 1067,206 928,148 765,148 601,148 462,206 346,322 231,437 173,577 173,740 Z"/>
  </g>
 </defs>
 <g ooo:name="page6" class="Page">
  <g class="Group">
   <g class="com.sun.star.drawing.CustomShape">
    <g id="id3">
     <rect class="BoundingBox" stroke="none" fill="none" x="0" y="0" width="1002" height="1002"/>
     <path fill="rgb(28,28,28)" stroke="none" d="M 101,0 L 101,0 C 83,0 66,5 50,14 35,22 22,35 14,51 5,66 0,83 0,101 L 0,900 0,900 C 0,918 5,935 14,951 22,966 35,979 51,987 66,996 83,1001 101,1001 L 900,1001 900,1001 C 918,1001 935,996 951,987 966,979 979,966 987,951 996,935 1001,918 1001,900 L 1001,101 1001,101 1001,101 C 1001,83 996,66 987,50 979,35 966,22 950,14 935,5 918,0 900,0 L 101,0 Z "/>
    </g>
   </g>
   <g class="com.sun.star.drawing.ClosedBezierShape">
    <g id="id4">
     <rect class="BoundingBox" stroke="none" fill="none" x="192" y="61" width="618" height="880"/>
     <path fill="rgb(89,131,176)" stroke="none" d="M 611,800 C 586,827 561,851 536,871 510,892 483,908 458,919 443,925 428,931 414,934 398,938 383,940 369,940 356,940 345,939 333,936 322,933 311,930 301,925 L 300,925 C 288,919 278,912 267,903 257,895 249,886 241,874 226,854 213,829 204,800 L 204,799 C 196,770 192,736 192,698 192,669 195,638 200,607 211,537 234,462 268,390 301,319 344,253 392,201 415,173 440,149 465,130 491,109 518,93 543,81 558,75 573,70 588,66 603,63 618,61 633,61 645,61 656,62 668,65 679,67 690,71 701,76 713,81 724,88 734,97 744,105 753,115 761,126 776,147 789,171 797,201 805,231 809,266 809,304 809,332 807,362 802,394 791,464 767,539 733,610 700,681 657,747 611,800 Z M 325,834 C 330,838 334,842 339,843 343,845 347,847 353,848 357,849 363,849 369,849 377,849 384,849 393,847 402,844 412,841 422,837 441,828 460,816 481,800 502,784 522,764 543,741 584,693 622,635 652,571 682,508 703,442 713,380 717,353 719,328 719,304 719,275 716,248 710,225 705,208 698,193 689,180 686,175 681,170 676,166 672,163 667,160 663,157 658,155 653,154 648,153 643,151 638,151 633,151 625,151 617,152 608,154 599,156 589,159 580,163 560,172 541,185 520,201 500,216 479,237 459,260 417,307 379,366 349,428 320,492 299,558 288,621 284,648 282,674 282,698 282,727 285,752 291,775 296,793 303,809 312,821 316,826 320,831 325,834 Z M 701,76 L 682,117 701,76 Z "/>
    </g>
   </g>
  </g>
 </g>
</svg>