<?xml version="1.0" encoding="UTF-8"?>
<!DOCTYPE svg PUBLIC "-//W3C//DTD SVG 1.1//EN" "http://www.w3.org/Graphics/SVG/1.1/DTD/svg11.dtd">
<svg version="1.2" viewBox="5500 3152 16002 3849" preserveAspectRatio="xMidYMid" fill-rule="evenodd" stroke-width="28.222" stroke-linejoin="round" xmlns="http://www.w3.org/2000/svg" xmlns:ooo="http://xml.openoffice.org/svg/export" xmlns:xlink="http://www.w3.org/1999/xlink" xmlns:presentation="http://sun.com/xmlns/staroffice/presentation" xmlns:smil="http://www.w3.org/2001/SMIL20/" xmlns:anim="urn:oasis:names:tc:opendocument:xmlns:animation:1.0" xmlns:svg="urn:oasis:names:tc:opendocument:xmlns:svg-compatible:1.0" xml:space="preserve">
 <defs class="EmbeddedBulletChars">
  <g id="bullet-char-template-57356" transform="scale(0.00048828125,-0.00048828125)">
   <path d="M 580,1141 L 1163,571 580,0 -4,571 580,1141 Z"/>
  </g>
  <g id="bullet-char-template-57354" transform="scale(0.00048828125,-0.00048828125)">
   <path d="M 8,1128 L 1137,1128 1137,0 8,0 8,1128 Z"/>
  </g>
  <g id="bullet-char-template-10146" transform="scale(0.00048828125,-0.00048828125)">
   <path d="M 174,0 L 602,739 174,1481 1456,739 174,0 Z M 1358,739 L 309,1346 659,739 1358,739 Z"/>
  </g>
  <g id="bullet-char-template-10132" transform="scale(0.00048828125,-0.00048828125)">
   <path d="M 2015,739 L 1276,0 717,0 1260,543 174,543 174,936 1260,936 717,1481 1274,1481 2015,739 Z"/>
  </g>
  <g id="bullet-char-template-10007" transform="scale(0.00048828125,-0.00048828125)">
   <path d="M 0,-2 C -7,14 -16,27 -25,37 L 356,567 C 262,823 215,952 215,954 215,979 228,992 255,992 264,992 276,990 289,987 310,991 331,999 354,1012 L 381,999 492,748 772,1049 836,1024 860,1049 C 881,1039 901,1025 922,1006 886,937 835,863 770,784 769,783 710,716 594,584 L 774,223 C 774,196 753,168 711,139 L 727,119 C 717,90 699,76 672,76 641,76 570,178 457,381 L 164,-76 C 142,-110 111,-127 72,-127 30,-127 9,-110 8,-76 1,-67 -2,-52 -2,-32 -2,-23 -1,-13 0,-2 Z"/>
  </g>
  <g id="bullet-char-template-10004" transform="scale(0.00048828125,-0.00048828125)">
   <path d="M 285,-33 C 182,-33 111,30 74,156 52,228 41,333 41,471 41,549 55,616 82,672 116,743 169,778 240,778 293,778 328,747 346,684 L 369,508 C 377,444 397,411 428,410 L 1163,1116 C 1174,1127 1196,1133 1229,1133 1271,1133 1292,1118 1292,1087 L 1292,965 C 1292,929 1282,901 1262,881 L 442,47 C 390,-6 338,-33 285,-33 Z"/>
  </g>
  <g id="bullet-char-template-9679" transform="scale(0.00048828125,-0.00048828125)">
   <path d="M 813,0 C 632,0 489,54 383,161 276,268 223,411 223,592 223,773 276,916 383,1023 489,1130 632,1184 813,1184 992,1184 1136,1130 1245,1023 1353,916 1407,772 1407,592 1407,412 1353,268 1245,161 1136,54 992,0 813,0 Z"/>
  </g>
  <g id="bullet-char-template-8226" transform="scale(0.00048828125,-0.00048828125)">
   <path d="M 346,457 C 273,457 209,483 155,535 101,586 74,649 74,723 74,796 101,859 155,911 209,963 273,989 346,989 419,989 480,963 531,910 582,859 608,796 608,723 608,648 583,586 532,535 482,483 420,457 346,457 Z"/>
  </g>
  <g id="bullet-char-template-8211" transform="scale(0.00048828125,-0.00048828125)">
   <path d="M -4,459 L 1135,459 1135,606 -4,606 -4,459 Z"/>
  </g>
  <g id="bullet-char-template-61548" transform="scale(0.00048828125,-0.00048828125)">
   <path d="M 173,740 C 173,903 231,1043 346,1159 462,1274 601,1332 765,1332 928,1332 1067,1274 1183,1159 1299,1043 1357,903 1357,740 1357,577 1299,437 1183,322 1067,206 928,148 765,148 601,148 462,206 346,322 231,437 173,577 173,740 Z"/>
  </g>
 </defs>
 <g ooo:name="page5" class="Page">
  <g class="com.sun.star.drawing.ClosedBezierShape">
   <g id="id3">
    <rect class="BoundingBox" stroke="none" fill="none" x="5500" y="3152" width="16002" height="3849"/>
    <path fill="rgb(28,28,28)" stroke="none" d="M 6141,3152 C 6029,3152 5918,3182 5821,3238 5723,3294 5642,3375 5586,3473 5530,3570 5500,3681 5500,3793 5500,4648 5500,5503 5500,6358 L 5500,6359 C 5500,6471 5530,6582 5586,6679 5642,6777 5723,6858 5821,6914 5918,6970 6029,7000 6141,7000 11047,7000 15953,7000 20859,7000 L 20860,7000 C 20972,7000 21083,6970 21180,6914 21278,6858 21359,6777 21415,6679 21471,6582 21501,6471 21501,6359 21501,5503 21501,4648 21501,3793 21501,3681 21471,3570 21415,3473 21359,3375 21278,3294 21180,3238 21083,3182 20972,3152 20860,3152 15953,3152 11047,3152 6141,3152 Z "/>
   </g>
  </g>
  <g class="Group">
   <g class="com.sun.star.drawing.ClosedBezierShape">
    <g id="id4">
     <rect class="BoundingBox" stroke="none" fill="none" x="6466" y="4113" width="1111" height="1799"/>
     <path fill="rgb(221,221,221)" stroke="none" d="M 6466,4151 C 6530,4136 6600,4126 6674,4121 6749,4116 6822,4113 6895,4113 6973,4113 7052,4121 7133,4136 7213,4151 7286,4179 7352,4220 7419,4260 7472,4316 7514,4387 7555,4458 7576,4549 7576,4659 7576,4767 7557,4859 7518,4933 7479,5008 7427,5068 7363,5115 7298,5162 7225,5195 7142,5215 7059,5236 6973,5246 6885,5246 L 6843,5246 C 6824,5246 6803,5245 6782,5245 6761,5244 6740,5242 6720,5241 6700,5239 6685,5237 6677,5236 L 6677,5911 6466,5911 6466,4151 Z M 6900,4296 C 6856,4296 6814,4297 6773,4298 6733,4300 6701,4304 6677,4311 L 6677,5048 C 6685,5051 6699,5053 6717,5054 6736,5055 6756,5056 6776,5057 6796,5057 6816,5058 6834,5058 L 6875,5058 C 6933,5058 6990,5052 7046,5041 7103,5030 7154,5010 7200,4982 7246,4953 7283,4912 7311,4860 7338,4807 7352,4740 7352,4659 7352,4590 7339,4532 7313,4485 7287,4439 7252,4401 7209,4373 7166,4345 7117,4326 7063,4314 7009,4302 6955,4296 6900,4296 Z "/>
    </g>
   </g>
   <g class="com.sun.star.drawing.ClosedBezierShape">
    <g id="id5">
     <rect class="BoundingBox" stroke="none" fill="none" x="7700" y="4640" width="1131" height="1793"/>
     <path fill="rgb(221,221,221)" stroke="none" d="M 8238,5464 L 8310,5708 8322,5708 8378,5461 8625,4641 8830,4641 8454,5781 C 8426,5864 8397,5945 8369,6023 8341,6101 8310,6170 8277,6231 8243,6292 8205,6341 8162,6377 8120,6413 8071,6432 8015,6432 7954,6432 7904,6423 7865,6406 L 7901,6231 C 7923,6240 7944,6244 7964,6244 8012,6244 8057,6219 8101,6169 8145,6119 8182,6033 8211,5911 L 7700,4641 7934,4641 8238,5464 Z "/>
    </g>
   </g>
   <g class="com.sun.star.drawing.ClosedBezierShape">
    <g id="id6">
     <rect class="BoundingBox" stroke="none" fill="none" x="9068" y="4113" width="1112" height="1799"/>
     <path fill="rgb(221,221,221)" stroke="none" d="M 9069,4151 C 9133,4136 9203,4126 9277,4121 9352,4116 9425,4113 9498,4113 9576,4113 9655,4121 9736,4136 9816,4151 9889,4179 9955,4220 10022,4260 10075,4316 10117,4387 10158,4458 10179,4549 10179,4659 10179,4767 10160,4859 10121,4933 10082,5008 10030,5068 9966,5115 9901,5162 9828,5195 9745,5215 9662,5236 9576,5246 9488,5246 L 9446,5246 C 9427,5246 9406,5245 9385,5245 9364,5244 9343,5242 9323,5241 9303,5239 9288,5237 9280,5236 L 9280,5911 9069,5911 9069,4151 Z M 9503,4296 C 9459,4296 9417,4297 9376,4298 9336,4300 9304,4304 9280,4311 L 9280,5048 C 9288,5051 9302,5053 9320,5054 9339,5055 9359,5056 9379,5057 9399,5057 9419,5058 9437,5058 L 9478,5058 C 9536,5058 9593,5052 9649,5041 9706,5030 9757,5010 9803,4982 9849,4953 9886,4912 9914,4860 9941,4807 9955,4740 9955,4659 9955,4590 9942,4532 9916,4485 9890,4439 9855,4401 9812,4373 9769,4345 9720,4326 9666,4314 9612,4302 9558,4296 9503,4296 Z "/>
    </g>
   </g>
   <g class="com.sun.star.drawing.ClosedBezierShape">
    <g id="id7">
     <rect class="BoundingBox" stroke="none" fill="none" x="11747" y="4133" width="501" height="1809"/>
     <path fill="rgb(221,221,221)" stroke="none" d="M 11950,5599 C 11950,5658 11960,5700 11981,5726 12001,5751 12030,5764 12067,5764 12089,5764 12113,5762 12138,5759 12164,5755 12192,5748 12225,5736 L 12247,5896 C 12220,5909 12183,5920 12134,5929 12086,5937 12044,5941 12009,5941 11932,5941 11870,5920 11821,5877 11772,5834 11747,5760 11747,5657 L 11747,4133 11950,4133 11950,5599 Z "/>
    </g>
   </g>
   <g class="com.sun.star.drawing.ClosedBezierShape">
    <g id="id8">
     <rect class="BoundingBox" stroke="none" fill="none" x="12387" y="4103" width="1114" height="1840"/>
     <path fill="rgb(221,221,221)" stroke="none" d="M 13289,5459 C 13289,5388 13268,5330 13225,5285 13183,5240 13130,5201 13066,5166 13003,5131 12934,5099 12859,5068 12785,5038 12716,5001 12652,4958 12589,4915 12536,4861 12494,4798 12451,4734 12430,4653 12430,4555 12430,4416 12478,4306 12575,4225 12671,4144 12809,4103 12986,4103 13090,4103 13184,4111 13268,4126 13353,4141 13419,4161 13467,4184 L 13403,4370 C 13364,4351 13307,4333 13232,4316 13156,4299 13071,4291 12976,4291 12865,4291 12781,4316 12725,4366 12669,4416 12641,4475 12641,4542 12641,4608 12662,4663 12705,4708 12747,4752 12800,4791 12863,4826 12927,4860 12996,4895 13070,4929 13145,4962 13214,5002 13277,5047 13341,5091 13394,5145 13436,5208 13478,5271 13500,5348 13500,5442 13500,5518 13486,5586 13459,5647 13432,5708 13392,5761 13340,5805 13287,5849 13224,5883 13149,5906 13074,5930 12990,5942 12895,5942 12768,5942 12663,5932 12580,5913 12497,5893 12433,5872 12387,5848 L 12458,5657 C 12497,5679 12555,5701 12631,5722 12707,5743 12793,5754 12887,5754 12943,5754 12996,5748 13045,5737 13094,5726 13136,5709 13172,5684 13207,5660 13236,5629 13257,5591 13278,5554 13289,5510 13289,5459 Z "/>
    </g>
   </g>
   <g class="com.sun.star.drawing.ClosedBezierShape">
    <g id="id9">
     <rect class="BoundingBox" stroke="none" fill="none" x="13639" y="4105" width="1446" height="1807"/>
     <path fill="rgb(221,221,221)" stroke="none" d="M 14680,5418 L 14025,5418 C 13966,5582 13907,5747 13847,5911 L 13639,5911 C 13863,5309 14088,4707 14312,4105 L 14409,4105 15084,5911 14863,5911 14680,5418 Z M 14094,5235 L 14617,5235 C 14551,5055 14485,4875 14419,4694 14398,4605 14376,4515 14355,4425 L 14353,4425 C 14332,4516 14310,4608 14289,4699 L 14094,5235 Z "/>
    </g>
   </g>
   <g class="com.sun.star.drawing.ClosedBezierShape">
    <g id="id10">
     <rect class="BoundingBox" stroke="none" fill="none" x="15320" y="4113" width="1197" height="1799"/>
     <path fill="rgb(221,221,221)" stroke="none" d="M 15320,4151 C 15384,4139 15458,4130 15542,4123 15626,4116 15703,4113 15772,4113 15850,4113 15924,4121 15994,4138 16065,4155 16126,4183 16180,4222 16233,4261 16276,4312 16308,4375 16340,4437 16356,4513 16356,4603 16356,4742 16318,4855 16242,4941 16166,5027 16069,5085 15952,5114 L 16074,5208 16516,5911 16270,5911 15780,5144 15531,5106 15531,5911 15320,5911 15320,4151 Z M 15777,4296 L 15709,4296 C 15685,4296 15662,4297 15640,4298 15618,4300 15597,4302 15578,4304 15558,4305 15543,4308 15531,4311 L 15531,4966 15729,4966 C 15846,4966 15942,4938 16019,4880 16095,4823 16133,4733 16133,4611 16133,4519 16101,4444 16039,4385 15976,4326 15889,4296 15777,4296 Z "/>
    </g>
   </g>
   <g class="com.sun.star.drawing.ClosedBezierShape">
    <g id="id11">
     <rect class="BoundingBox" stroke="none" fill="none" x="16786" y="4611" width="1055" height="1809"/>
     <path fill="rgb(221,221,221)" stroke="none" d="M 16786,4641 L 16926,4641 16964,4794 16974,4794 C 17013,4735 17063,4689 17125,4658 17187,4627 17258,4611 17337,4611 17507,4611 17633,4661 17716,4761 17799,4861 17840,5024 17840,5251 17840,5358 17826,5454 17798,5539 17770,5625 17731,5697 17680,5757 17629,5816 17568,5862 17496,5894 17424,5926 17344,5942 17256,5942 17193,5942 17144,5938 17107,5931 17071,5923 17032,5910 16989,5891 L 16989,6419 16786,6419 16786,4641 Z M 17299,4789 C 17213,4789 17145,4811 17095,4856 17045,4901 17010,4969 16989,5061 L 16989,5691 C 17020,5714 17054,5732 17093,5745 17132,5758 17184,5764 17248,5764 17365,5764 17458,5721 17526,5633 17595,5546 17629,5418 17629,5249 17629,5179 17623,5116 17612,5059 17600,5003 17581,4954 17554,4915 17528,4875 17494,4844 17453,4822 17411,4800 17360,4789 17299,4789 Z "/>
    </g>
   </g>
   <g class="com.sun.star.drawing.ClosedBezierShape">
    <g id="id12">
     <rect class="BoundingBox" stroke="none" fill="none" x="18160" y="4616" width="644" height="1296"/>
     <path fill="rgb(221,221,221)" stroke="none" d="M 18759,4837 C 18709,4820 18660,4812 18615,4812 18542,4812 18484,4831 18442,4871 18400,4911 18373,4961 18363,5022 L 18363,5911 18160,5911 18160,4641 18302,4641 18340,4796 18351,4796 C 18383,4739 18421,4694 18466,4663 18511,4632 18568,4616 18638,4616 18687,4616 18742,4624 18803,4641 L 18759,4837 Z "/>
    </g>
   </g>
   <g class="com.sun.star.drawing.ClosedBezierShape">
    <g id="id13">
     <rect class="BoundingBox" stroke="none" fill="none" x="18953" y="4610" width="1114" height="1333"/>
     <path fill="rgb(221,221,221)" stroke="none" d="M 18953,5276 C 18953,5061 19001,4897 19097,4782 19192,4668 19330,4611 19509,4611 19604,4611 19687,4627 19757,4658 19827,4689 19885,4734 19931,4793 19977,4851 20010,4921 20033,5003 20055,5086 20066,5177 20066,5276 20066,5492 20018,5656 19922,5771 19826,5885 19689,5942 19509,5942 19414,5942 19332,5926 19262,5895 19191,5864 19133,5819 19088,5760 19042,5702 19008,5632 18986,5550 18964,5467 18953,5376 18953,5276 Z M 19164,5276 C 19164,5341 19170,5403 19183,5462 19196,5521 19215,5573 19243,5617 19270,5661 19305,5696 19349,5724 19393,5751 19447,5764 19509,5764 19740,5766 19855,5603 19855,5276 19855,5210 19848,5148 19836,5089 19823,5029 19803,4978 19776,4934 19749,4890 19713,4854 19669,4828 19625,4802 19572,4789 19509,4789 19279,4787 19164,4950 19164,5276 Z "/>
    </g>
   </g>
  </g>
  <g class="com.sun.star.drawing.ClosedBezierShape">
   <g id="id14">
    <rect class="BoundingBox" stroke="none" fill="none" x="10101" y="4027" width="1458" height="2073"/>
    <path fill="none" stroke="rgb(89,131,176)" stroke-width="212" stroke-linejoin="round" d="M 11282,5276 C 11207,5435 11112,5581 11008,5700 10903,5819 10792,5906 10686,5953 10580,6000 10482,6005 10402,5968 10323,5930 10265,5852 10233,5740 10202,5628 10199,5487 10224,5330 10249,5174 10302,5008 10376,4849 10451,4690 10546,4544 10651,4425 10755,4307 10866,4219 10972,4172 11079,4125 11176,4120 11256,4158 11335,4195 11394,4274 11425,4386 11456,4498 11460,4639 11435,4795 11409,4951 11357,5117 11282,5276 Z "/>
   </g>
  </g>
  <g class="Group">
   <g class="com.sun.star.drawing.ClosedBezierShape">
    <g id="id15">
     <rect class="BoundingBox" stroke="none" fill="none" x="20195" y="3500" width="949" height="950"/>
     <path fill="rgb(221,221,221)" stroke="none" d="M 21106,3701 C 21093,3688 21081,3676 21069,3663 21093,3663 21118,3663 21143,3663 21089,3609 21035,3555 20981,3501 20981,3526 20981,3551 20981,3576 20968,3563 20955,3551 20943,3538 20939,3534 20935,3531 20930,3528 20920,3523 20909,3520 20898,3520 20887,3520 20876,3523 20866,3528 20861,3531 20857,3534 20853,3538 20757,3633 20662,3729 20567,3824 20563,3827 20560,3832 20557,3837 20551,3846 20548,3858 20548,3869 20548,3880 20551,3891 20557,3901 20560,3906 20563,3910 20567,3914 20580,3927 20593,3940 20606,3953 20597,3960 20588,3967 20580,3975 20577,3977 20574,3980 20572,3983 20568,3980 20563,3978 20559,3975 20513,3949 20461,3935 20408,3935 20355,3935 20303,3949 20257,3975 20234,3988 20213,4004 20195,4023 20253,4081 20312,4139 20370,4198 20369,4199 20368,4200 20367,4201 20324,4244 20306,4296 20327,4317 20348,4338 20400,4320 20443,4277 20444,4276 20445,4275 20446,4274 20504,4332 20562,4390 20621,4449 20640,4431 20656,4410 20669,4387 20695,4341 20709,4289 20709,4236 20709,4183 20695,4131 20669,4085 20666,4081 20664,4076 20661,4072 20664,4069 20667,4066 20670,4064 20677,4056 20684,4047 20691,4038 20704,4051 20717,4064 20730,4077 20734,4081 20738,4084 20743,4087 20753,4093 20764,4096 20775,4096 20786,4096 20798,4093 20807,4087 20812,4084 20817,4081 20820,4077 20915,3981 21010,3886 21106,3791 21110,3787 21114,3783 21117,3778 21122,3768 21125,3757 21125,3746 21125,3735 21122,3724 21117,3714 21114,3709 21110,3705 21106,3701 Z "/>
    </g>
   </g>
   <g class="com.sun.star.drawing.ClosedBezierShape">
    <g id="id16">
     <rect class="BoundingBox" stroke="none" fill="none" x="20252" y="3332" width="459" height="459"/>
     <path fill="rgb(221,221,221)" stroke="none" d="M 20253,3508 C 20311,3449 20370,3391 20428,3332 20522,3426 20616,3521 20710,3615 20651,3673 20593,3731 20535,3790 20441,3696 20347,3602 20253,3508 Z "/>
    </g>
   </g>
   <g class="com.sun.star.drawing.ClosedBezierShape">
    <g id="id17">
     <rect class="BoundingBox" stroke="none" fill="none" x="20853" y="3934" width="459" height="458"/>
     <path fill="rgb(221,221,221)" stroke="none" d="M 20853,4109 C 20911,4051 20970,3992 21028,3934 21122,4028 21216,4122 21311,4216 21252,4274 21193,4332 21135,4391 21041,4297 20947,4203 20853,4109 Z "/>
    </g>
   </g>
   <g class="com.sun.star.drawing.ClosedBezierShape">
    <g id="id18">
     <rect class="BoundingBox" stroke="none" fill="none" x="19977" y="4228" width="439" height="439"/>
     <path fill="rgb(221,221,221)" stroke="none" d="M 20415,4625 C 20345,4625 20277,4606 20217,4572 20156,4537 20106,4487 20071,4426 20037,4366 20018,4298 20018,4228 20004,4228 19991,4228 19977,4228 19977,4305 19997,4380 20035,4447 20074,4514 20129,4569 20196,4608 20263,4646 20338,4666 20415,4666 20415,4652 20415,4638 20415,4625 Z "/>
    </g>
   </g>
   <g class="com.sun.star.drawing.ClosedBezierShape">
    <g id="id19">
     <rect class="BoundingBox" stroke="none" fill="none" x="20054" y="4227" width="362" height="363"/>
     <path fill="rgb(221,221,221)" stroke="none" d="M 20096,4228 C 20082,4228 20068,4228 20054,4228 20054,4291 20070,4353 20102,4408 20133,4462 20179,4508 20234,4540 20289,4571 20351,4589 20415,4589 20415,4575 20415,4561 20415,4547 20359,4547 20304,4532 20255,4504 20207,4476 20167,4436 20139,4388 20111,4339 20096,4284 20096,4228 Z "/>
    </g>
   </g>
   <g class="com.sun.star.drawing.ClosedBezierShape">
    <g id="id20">
     <rect class="BoundingBox" stroke="none" fill="none" x="20138" y="4226" width="278" height="278"/>
     <path fill="rgb(221,221,221)" stroke="none" d="M 20249,4394 C 20235,4379 20222,4363 20212,4345 20192,4310 20181,4269 20181,4228 L 20181,4227 C 20167,4227 20153,4227 20139,4227 20139,4275 20152,4323 20176,4365 20201,4407 20235,4441 20277,4466 20319,4490 20367,4502 20415,4503 20415,4489 20415,4475 20415,4461 20414,4461 20414,4461 20413,4461 20373,4461 20332,4450 20297,4430 20280,4420 20264,4408 20249,4394 Z "/>
    </g>
   </g>
   <g class="com.sun.star.drawing.ClosedBezierShape">
    <g id="id21">
     <rect class="BoundingBox" stroke="none" fill="none" x="20216" y="4228" width="200" height="200"/>
     <path fill="rgb(221,221,221)" stroke="none" d="M 20258,4228 C 20244,4228 20230,4228 20216,4228 20217,4263 20226,4297 20243,4327 20261,4357 20286,4382 20316,4400 20346,4417 20380,4426 20415,4427 20415,4413 20415,4399 20415,4385 20387,4385 20360,4377 20337,4364 20313,4350 20293,4330 20279,4306 20266,4283 20258,4256 20258,4228 Z "/>
    </g>
   </g>
  </g>
 </g>
</svg>